<svg xmlns="http://www.w3.org/2000/svg"
     xmlns:xlink="http://www.w3.org/1999/xlink"
     width="350" height="40">
  <line x1="0" y1="1" x2="344" y2="1"
        stroke="#93B5C6" stroke-width="1" />
  <line x1="0" y1="8" x2="344" y2="8"
        stroke="#93B5C6" stroke-width="1" />
  <line x1="0" y1="15" x2="344" y2="15"
        stroke="#93B5C6" stroke-width="1" />
  <line x1="0" y1="22" x2="344" y2="22"
        stroke="#93B5C6" stroke-width="1" />
  <line x1="0" y1="29" x2="344" y2="29"
        stroke="#93B5C6" stroke-width="1" />
  <line x1="190" y1="1" x2="190" y2="29"
        stroke="#93B5C6" stroke-width="1" />
  <line x1="340" y1="1" x2="340" y2="29"
        stroke="#93B5C6" stroke-width="1" />
  <line x1="344" y1="0.5" x2="344" y2="29.5"
        stroke="#93B5C6" stroke-width="3" />
  <g transform="translate(0.000000,1280.000000) scale(0.100000,-0.100000)"
     fill="#93B5C6" stroke="none">
    <path d="M100 12790 c-7 -2 -13 -4 -16 -9 -7 -7 -11 -16 -13 -29 0 -4 0 -18 0 -25 2 -14 5 -31 9 -49 2 -4 2 -9 2 -9 0 0 -2 -2 -4 -4 -14 -13 -25 -23 -31 -31 -7 -13 -13 -23 -14 -38 -2 -5 -2 -16 0 -22 2 -16 9 -29 18 -40 5 -5 11 -9 18 -13 11 -5 23 -9 38 -7 7 0 11 0 14 2 2 0 4 0 4 0 0 0 2 -9 4 -13 4 -13 4 -25 2 -32 -2 -7 -7 -14 -14 -20 -7 -4 -14 -5 -20 -4 -2 0 -4 4 -4 4 0 0 2 2 2 2 4 2 7 5 9 9 2 4 2 5 2 11 0 4 0 4 0 7 -2 9 -9 16 -18 18 -4 2 -9 2 -11 0 -9 -2 -16 -9 -18 -16 -2 -7 -2 -14 2 -20 5 -9 13 -14 20 -13 l4 0 2 -2 c9 -5 20 -7 31 -5 11 4 18 9 22 20 2 5 2 7 2 16 0 5 0 9 0 11 -2 5 -2 13 -4 20 -2 4 -2 5 -2 5 0 0 2 0 2 2 16 5 25 16 27 34 0 4 0 13 0 16 -2 9 -5 18 -9 25 -5 9 -13 14 -20 18 -7 4 -13 5 -25 5 -4 0 -7 0 -7 0 0 0 -2 7 -5 16 -2 9 -5 16 -5 16 0 0 2 2 4 4 16 13 27 27 36 47 4 11 7 22 9 32 2 5 2 18 0 22 -2 13 -7 22 -14 29 -5 4 -9 7 -14 9 -4 2 -9 2 -13 2z m11 -14 c4 -2 5 -2 9 -5 4 -4 5 -9 7 -14 2 -5 2 -16 0 -23 -2 -13 -5 -22 -13 -31 -4 -4 -5 -5 -9 -11 -5 -5 -18 -18 -18 -18 0 0 -2 2 -4 13 -5 27 -7 49 -5 63 2 4 2 9 4 11 4 7 13 14 20 16 4 0 7 0 9 0z m-23 -131 c0 -2 5 -16 7 -22 2 -4 2 -5 2 -5 0 0 -2 -2 -4 -2 -14 -5 -25 -16 -29 -29 0 -2 0 -4 0 -5 0 -4 0 -4 2 -7 2 -5 5 -11 11 -14 2 -2 2 -2 2 -2 0 0 0 2 0 5 0 4 0 5 0 9 2 9 7 16 18 18 2 2 7 2 7 2 0 0 20 -63 22 -67 0 0 -2 -2 -5 -2 -4 -2 -7 -2 -13 -2 -18 0 -31 4 -40 14 -9 9 -13 18 -14 32 0 4 0 13 0 16 2 20 13 41 27 52 4 4 9 7 9 7 0 0 0 0 0 -2z m34 -50 c4 -2 9 -4 11 -5 4 -2 7 -7 9 -11 4 -5 5 -9 7 -14 2 -4 2 -11 0 -14 -2 -7 -5 -13 -9 -16 -2 -2 -7 -5 -7 -5 0 0 -2 4 -2 5 -4 14 -14 43 -18 54 -2 7 -2 7 -2 7 2 0 9 0 11 0z"/>
  </g>
  <text x="23" y="12" 
        font-family="Georgia"
        font-size="18"
        stroke="none" fill="#93B5C6">4</text>
  <text x="23" y="26" 
        font-family="Georgia"
        font-size="18"
        stroke="none" fill="#93B5C6">4</text>
</svg>
